<svg id="visual" viewBox="0 0 1707 300" width="1707" height="300" xmlns="http://www.w3.org/2000/svg" xmlns:xlink="http://www.w3.org/1999/xlink" version="1.1"><path d="M0 46L35.5 43C71 40 142 34 213.2 32C284.3 30 355.7 32 426.8 31C498 30 569 26 640.2 26.5C711.3 27 782.7 32 853.8 36C925 40 996 43 1067 45C1138 47 1209 48 1280.2 48.5C1351.3 49 1422.7 49 1493.8 47C1565 45 1636 41 1671.5 39L1707 37L1707 0L1671.5 0C1636 0 1565 0 1493.8 0C1422.7 0 1351.3 0 1280.2 0C1209 0 1138 0 1067 0C996 0 925 0 853.8 0C782.7 0 711.3 0 640.2 0C569 0 498 0 426.8 0C355.7 0 284.3 0 213.2 0C142 0 71 0 35.5 0L0 0Z" fill="#5e9faf"></path><path d="M0 73L35.5 75C71 77 142 81 213.2 82C284.3 83 355.7 81 426.8 78.5C498 76 569 73 640.2 75.5C711.3 78 782.7 86 853.8 87.5C925 89 996 84 1067 84C1138 84 1209 89 1280.2 88.5C1351.3 88 1422.7 82 1493.8 77C1565 72 1636 68 1671.5 66L1707 64L1707 35L1671.5 37C1636 39 1565 43 1493.8 45C1422.7 47 1351.3 47 1280.2 46.5C1209 46 1138 45 1067 43C996 41 925 38 853.8 34C782.7 30 711.3 25 640.2 24.5C569 24 498 28 426.8 29C355.7 30 284.3 28 213.2 30C142 32 71 38 35.5 41L0 44Z" fill="#7bb1be"></path><path d="M0 181L35.5 181.5C71 182 142 183 213.2 187C284.3 191 355.7 198 426.8 189C498 180 569 155 640.2 148C711.3 141 782.7 152 853.8 156.5C925 161 996 159 1067 165C1138 171 1209 185 1280.2 190C1351.3 195 1422.7 191 1493.8 185.5C1565 180 1636 173 1671.5 169.5L1707 166L1707 62L1671.5 64C1636 66 1565 70 1493.8 75C1422.7 80 1351.3 86 1280.2 86.5C1209 87 1138 82 1067 82C996 82 925 87 853.8 85.5C782.7 84 711.3 76 640.2 73.5C569 71 498 74 426.8 76.5C355.7 79 284.3 81 213.2 80C142 79 71 75 35.5 73L0 71Z" fill="#97c3ce"></path><path d="M0 247L35.5 245.5C71 244 142 241 213.2 239.5C284.3 238 355.7 238 426.8 232.5C498 227 569 216 640.2 209C711.3 202 782.7 199 853.8 199.5C925 200 996 204 1067 211.5C1138 219 1209 230 1280.2 236C1351.3 242 1422.7 243 1493.8 237C1565 231 1636 218 1671.5 211.5L1707 205L1707 164L1671.5 167.5C1636 171 1565 178 1493.8 183.5C1422.7 189 1351.3 193 1280.2 188C1209 183 1138 169 1067 163C996 157 925 159 853.8 154.5C782.7 150 711.3 139 640.2 146C569 153 498 178 426.8 187C355.7 196 284.3 189 213.2 185C142 181 71 180 35.5 179.5L0 179Z" fill="#b3d5de"></path><path d="M0 301L35.5 301C71 301 142 301 213.2 301C284.3 301 355.7 301 426.8 301C498 301 569 301 640.2 301C711.3 301 782.7 301 853.8 301C925 301 996 301 1067 301C1138 301 1209 301 1280.2 301C1351.3 301 1422.7 301 1493.8 301C1565 301 1636 301 1671.5 301L1707 301L1707 203L1671.5 209.5C1636 216 1565 229 1493.8 235C1422.7 241 1351.3 240 1280.2 234C1209 228 1138 217 1067 209.5C996 202 925 198 853.8 197.5C782.7 197 711.3 200 640.2 207C569 214 498 225 426.8 230.5C355.7 236 284.3 236 213.2 237.5C142 239 71 242 35.5 243.5L0 245Z" fill="#cee8ee"></path></svg>