<svg id="visual" viewBox="0 0 2560 261.999" width="2560" height="261.999" xmlns="http://www.w3.org/2000/svg" xmlns:xlink="http://www.w3.org/1999/xlink" version="1.1"><path d="M0 43L42.7 48.2C85.3 53.3 170.7 63.7 256 66.7C341.3 69.7 426.7 65.3 512 62.3C597.3 59.3 682.7 57.7 768 56.8C853.3 56 938.7 56 1024 55.5C1109.3 55 1194.7 54 1280 51C1365.3 48 1450.7 43 1536 40.8C1621.3 38.7 1706.7 39.3 1792 41.8C1877.3 44.3 1962.7 48.7 2048 55.3C2133.3 62 2218.7 71 2304 71C2389.3 71 2474.7 62 2517.3 57.5L2560 53L2560 0L2517.3 0C2474.7 0 2389.3 0 2304 0C2218.7 0 2133.3 0 2048 0C1962.7 0 1877.3 0 1792 0C1706.7 0 1621.3 0 1536 0C1450.7 0 1365.3 0 1280 0C1194.7 0 1109.3 0 1024 0C938.7 0 853.3 0 768 0C682.7 0 597.3 0 512 0C426.7 0 341.3 0 256 0C170.7 0 85.3 0 42.7 0L0 0Z" fill="#eeece1"></path><path d="M0 61L42.7 71.5C85.3 82 170.7 103 256 107.8C341.3 112.7 426.7 101.3 512 97.5C597.3 93.7 682.7 97.3 768 99.2C853.3 101 938.7 101 1024 96.5C1109.3 92 1194.7 83 1280 76.3C1365.3 69.7 1450.7 65.3 1536 65C1621.3 64.7 1706.7 68.3 1792 74.5C1877.3 80.7 1962.7 89.3 2048 95C2133.3 100.7 2218.7 103.3 2304 99.8C2389.3 96.3 2474.7 86.7 2517.3 81.8L2560 77L2560 51L2517.3 55.5C2474.7 60 2389.3 69 2304 69C2218.7 69 2133.3 60 2048 53.3C1962.7 46.7 1877.3 42.3 1792 39.8C1706.7 37.3 1621.3 36.7 1536 38.8C1450.7 41 1365.3 46 1280 49C1194.7 52 1109.3 53 1024 53.5C938.7 54 853.3 54 768 54.8C682.7 55.7 597.3 57.3 512 60.3C426.7 63.3 341.3 67.7 256 64.7C170.7 61.7 85.3 51.3 42.7 46.2L0 41Z" fill="#e5ece0"></path><path d="M0 119L42.7 126.8C85.3 134.7 170.7 150.3 256 154.7C341.3 159 426.7 152 512 157.7C597.3 163.3 682.7 181.7 768 179.5C853.3 177.3 938.7 154.7 1024 149C1109.3 143.3 1194.7 154.7 1280 149.8C1365.3 145 1450.7 124 1536 117C1621.3 110 1706.7 117 1792 131.8C1877.3 146.7 1962.7 169.3 2048 173.3C2133.3 177.3 2218.7 162.7 2304 159.2C2389.3 155.7 2474.7 163.3 2517.3 167.2L2560 171L2560 75L2517.3 79.8C2474.7 84.7 2389.3 94.3 2304 97.8C2218.7 101.3 2133.3 98.7 2048 93C1962.7 87.3 1877.3 78.7 1792 72.5C1706.7 66.3 1621.3 62.7 1536 63C1450.7 63.3 1365.3 67.7 1280 74.3C1194.7 81 1109.3 90 1024 94.5C938.7 99 853.3 99 768 97.2C682.7 95.3 597.3 91.7 512 95.5C426.7 99.3 341.3 110.7 256 105.8C170.7 101 85.3 80 42.7 69.5L0 59Z" fill="#dbebe2"></path><path d="M0 242L42.7 243.3C85.3 244.7 170.7 247.3 256 248.2C341.3 249 426.7 248 512 245.3C597.3 242.7 682.7 238.3 768 232.7C853.3 227 938.7 220 1024 216.2C1109.3 212.3 1194.7 211.7 1280 213.8C1365.3 216 1450.7 221 1536 227C1621.3 233 1706.7 240 1792 240C1877.3 240 1962.7 233 2048 232.2C2133.3 231.3 2218.7 236.7 2304 232.8C2389.3 229 2474.7 216 2517.3 209.5L2560 203L2560 169L2517.3 165.2C2474.7 161.3 2389.3 153.7 2304 157.2C2218.7 160.7 2133.3 175.3 2048 171.3C1962.7 167.3 1877.3 144.7 1792 129.8C1706.7 115 1621.3 108 1536 115C1450.7 122 1365.3 143 1280 147.8C1194.7 152.7 1109.3 141.3 1024 147C938.7 152.7 853.3 175.3 768 177.5C682.7 179.7 597.3 161.3 512 155.7C426.7 150 341.3 157 256 152.7C170.7 148.3 85.3 132.7 42.7 124.8L0 117Z" fill="#d2eae7"></path><path d="M0 263L42.7 263C85.3 263 170.7 263 256 263C341.3 263 426.7 263 512 263C597.3 263 682.7 263 768 263C853.3 263 938.7 263 1024 263C1109.3 263 1194.7 263 1280 263C1365.3 263 1450.7 263 1536 263C1621.3 263 1706.7 263 1792 263C1877.3 263 1962.7 263 2048 263C2133.3 263 2218.7 263 2304 263C2389.3 263 2474.7 263 2517.3 263L2560 263L2560 201L2517.3 207.5C2474.7 214 2389.3 227 2304 230.8C2218.7 234.7 2133.3 229.3 2048 230.2C1962.7 231 1877.3 238 1792 238C1706.7 238 1621.3 231 1536 225C1450.7 219 1365.3 214 1280 211.8C1194.7 209.7 1109.3 210.3 1024 214.2C938.7 218 853.3 225 768 230.7C682.7 236.3 597.3 240.7 512 243.3C426.7 246 341.3 247 256 246.2C170.7 245.3 85.3 242.7 42.7 241.3L0 240Z" fill="#cee8ee"></path></svg>