<svg id="visual" viewBox="0 0 2560 261.999" width="2560" height="261.999" xmlns="http://www.w3.org/2000/svg" xmlns:xlink="http://www.w3.org/1999/xlink" version="1.1"><path d="M0 40L42.7 38.3C85.3 36.7 170.7 33.3 256 29C341.3 24.7 426.7 19.3 512 17.2C597.3 15 682.7 16 768 21.3C853.3 26.7 938.7 36.3 1024 36.7C1109.3 37 1194.7 28 1280 26.2C1365.3 24.3 1450.7 29.7 1536 32.8C1621.3 36 1706.7 37 1792 34C1877.3 31 1962.7 24 2048 23.5C2133.3 23 2218.7 29 2304 29.8C2389.3 30.7 2474.7 26.3 2517.3 24.2L2560 22L2560 0L2517.3 0C2474.7 0 2389.3 0 2304 0C2218.7 0 2133.3 0 2048 0C1962.7 0 1877.3 0 1792 0C1706.7 0 1621.3 0 1536 0C1450.7 0 1365.3 0 1280 0C1194.7 0 1109.3 0 1024 0C938.7 0 853.3 0 768 0C682.7 0 597.3 0 512 0C426.7 0 341.3 0 256 0C170.7 0 85.3 0 42.7 0L0 0Z" fill="#cee8ee"></path><path d="M0 56L42.7 56.5C85.3 57 170.7 58 256 58.5C341.3 59 426.7 59 512 60.2C597.3 61.3 682.7 63.7 768 65.3C853.3 67 938.7 68 1024 62.8C1109.3 57.7 1194.7 46.3 1280 45C1365.3 43.7 1450.7 52.3 1536 59.8C1621.3 67.3 1706.7 73.7 1792 74.2C1877.3 74.7 1962.7 69.3 2048 68.8C2133.3 68.3 2218.7 72.7 2304 68.7C2389.3 64.7 2474.7 52.3 2517.3 46.2L2560 40L2560 20L2517.3 22.2C2474.7 24.3 2389.3 28.7 2304 27.8C2218.7 27 2133.3 21 2048 21.5C1962.7 22 1877.3 29 1792 32C1706.7 35 1621.3 34 1536 30.8C1450.7 27.7 1365.3 22.3 1280 24.2C1194.7 26 1109.3 35 1024 34.7C938.7 34.3 853.3 24.7 768 19.3C682.7 14 597.3 13 512 15.2C426.7 17.3 341.3 22.7 256 27C170.7 31.3 85.3 34.7 42.7 36.3L0 38Z" fill="#d2eae7"></path><path d="M0 106L42.7 116C85.3 126 170.7 146 256 144.7C341.3 143.3 426.7 120.7 512 118C597.3 115.3 682.7 132.7 768 146.7C853.3 160.7 938.7 171.3 1024 162.7C1109.3 154 1194.7 126 1280 125.2C1365.3 124.3 1450.7 150.7 1536 158.5C1621.3 166.3 1706.7 155.7 1792 151.2C1877.3 146.7 1962.7 148.3 2048 145.7C2133.3 143 2218.7 136 2304 126.8C2389.3 117.7 2474.7 106.3 2517.3 100.7L2560 95L2560 38L2517.3 44.2C2474.7 50.3 2389.3 62.7 2304 66.7C2218.7 70.7 2133.3 66.3 2048 66.8C1962.7 67.3 1877.3 72.7 1792 72.2C1706.7 71.7 1621.3 65.3 1536 57.8C1450.7 50.3 1365.3 41.7 1280 43C1194.7 44.3 1109.3 55.7 1024 60.8C938.7 66 853.3 65 768 63.3C682.7 61.7 597.3 59.3 512 58.2C426.7 57 341.3 57 256 56.5C170.7 56 85.3 55 42.7 54.5L0 54Z" fill="#dbebe2"></path><path d="M0 169L42.7 174.2C85.3 179.3 170.7 189.7 256 190.5C341.3 191.3 426.7 182.7 512 185.7C597.3 188.7 682.7 203.3 768 211.7C853.3 220 938.7 222 1024 209.8C1109.3 197.7 1194.7 171.3 1280 166.8C1365.3 162.3 1450.7 179.7 1536 187.5C1621.3 195.3 1706.7 193.7 1792 198.2C1877.3 202.7 1962.7 213.3 2048 211.7C2133.3 210 2218.7 196 2304 187.2C2389.3 178.3 2474.7 174.7 2517.3 172.8L2560 171L2560 93L2517.3 98.7C2474.7 104.3 2389.3 115.7 2304 124.8C2218.7 134 2133.3 141 2048 143.7C1962.7 146.3 1877.3 144.7 1792 149.2C1706.7 153.7 1621.3 164.3 1536 156.5C1450.7 148.7 1365.3 122.3 1280 123.2C1194.7 124 1109.3 152 1024 160.7C938.7 169.3 853.3 158.7 768 144.7C682.7 130.7 597.3 113.3 512 116C426.7 118.7 341.3 141.3 256 142.7C170.7 144 85.3 124 42.7 114L0 104Z" fill="#e5ece0"></path><path d="M0 263L42.7 263C85.3 263 170.7 263 256 263C341.3 263 426.7 263 512 263C597.3 263 682.7 263 768 263C853.3 263 938.7 263 1024 263C1109.3 263 1194.7 263 1280 263C1365.3 263 1450.7 263 1536 263C1621.3 263 1706.7 263 1792 263C1877.3 263 1962.7 263 2048 263C2133.3 263 2218.7 263 2304 263C2389.3 263 2474.7 263 2517.3 263L2560 263L2560 169L2517.3 170.8C2474.7 172.7 2389.3 176.3 2304 185.2C2218.7 194 2133.3 208 2048 209.7C1962.7 211.3 1877.3 200.7 1792 196.2C1706.7 191.7 1621.3 193.3 1536 185.5C1450.7 177.7 1365.3 160.3 1280 164.8C1194.7 169.3 1109.3 195.7 1024 207.8C938.7 220 853.3 218 768 209.7C682.7 201.3 597.3 186.7 512 183.7C426.7 180.7 341.3 189.3 256 188.5C170.7 187.7 85.3 177.3 42.7 172.2L0 167Z" fill="#eeece1"></path></svg>